<svg id="Capa_1" data-name="Capa 1" xmlns="http://www.w3.org/2000/svg" viewBox="0 0 157.57 157.53"><defs><style>.cls-1{fill:#23b23a;}.cls-2{fill:#4dcb5b;}.cls-3{fill:#51cd5e;}.cls-4{fill:#26b43c;}.cls-5{fill:#56d062;}.cls-6{fill:#29b63e;}.cls-7{fill:#40c351;}.cls-8{fill:#3cc14e;}.cls-9{fill:#49c858;}.cls-10{fill:#3abf4c;}.cls-11{fill:#53ce60;}.cls-12{fill:#45c655;}.cls-13{fill:#42c453;}.cls-14{fill:#2bb740;}.cls-15{fill:#47c757;}.cls-16{fill:#2fb943;}.cls-17{fill:#37be4a;}.cls-18{fill:#2cb741;}.cls-19{fill:#31bb45;}.cls-20{fill:#34bc47;}.cls-21{fill:#36bd49;}.cls-22{fill:#38bf4b;}.cls-23{fill:#35bc48;}.cls-24{fill:#4ac958;}.cls-25{fill:#41c451;}.cls-26{fill:#30ba45;}.cls-27{fill:#43c553;}.cls-28{fill:#2db842;}.cls-29{fill:#3fc250;}.cls-30{fill:#33bb46;}.cls-31{fill:#fefefe;}.cls-32{fill:#3bc04d;}.cls-33{fill:#3dc14e;}.cls-34{fill:#35bd48;}</style></defs><title>logo whatsapp</title><path class="cls-1" d="M210.36,185.61a88.92,88.92,0,0,1-7.65,5.37,77.73,77.73,0,0,1-48.77,10.78,76.3,76.3,0,0,1-33-11.29,4.18,4.18,0,0,0-3.62-.45c-9.15,2.45-18.32,4.82-27.82,7.31,1.1-4,2.13-7.84,3.17-11.63,1-1.49,2.51-1.16,3.9-1.16,11.53,0,23.07.29,34.59-.09,25-.8,49.9-.12,74.84-.38a13.27,13.27,0,0,1,3.15.15C209.82,184.37,210.73,184.46,210.36,185.61Z" transform="translate(-83.48 -44.67)"/><path class="cls-2" d="M94.37,83.78A41.67,41.67,0,0,1,101,74.21c1.28-.86,2.75-.68,4.17-.68,18.64,0,37.29.38,55.92-.11,19.32-.5,38.63-.11,57.94-.34,1.42,0,2.89-.17,4.18.67,2.47,3,4.95,6,6.53,9.6-.85,1.51-2.36,1.14-3.65,1.14-11.47,0-22.94,0-34.42,0-5.43,0-10.87-.18-16.3,0-11.84.47-23.69.39-35.53.45-1.28,0-1.79-.91-2.3-1.83-1.13-2-2.89-2.77-5.18-2.9-4.07-.22-7.77.27-10.49,3.74a2.23,2.23,0,0,1-2.19.89c-5.18-.81-10.38-.25-15.57-.39-2.33-.07-4.67,0-7,0C96.17,84.46,95.15,84.57,94.37,83.78Z" transform="translate(-83.48 -44.67)"/><path class="cls-3" d="M223.24,73.75c-14.27,0-28.53-.15-42.79.11-25.42.47-50.84.38-76.26.41-1,0-2.11,0-3.16-.06a42.87,42.87,0,0,1,7.89-8.53,8.1,8.1,0,0,1,2.68-.3c1.81,0,3.63,0,5.44,0,31.08-.31,62.17-.61,93.25-.44,1.56,0,3.16-.54,4.69.24A47.22,47.22,0,0,1,223.24,73.75Z" transform="translate(-83.48 -44.67)"/><path class="cls-4" d="M210.36,185.61c-.32-1.21-1.32-.79-2.06-.79-24.05,0-48.11-.36-72.15.12-13.63.27-27.25.05-40.88.32a4.48,4.48,0,0,0-2.62.44l2.25-8.14a2.75,2.75,0,0,1,2-.33c1.81.07,3.62.07,5.43,0,30.53-.6,61.06-.29,91.59-.55,7.14-.06,14.31-.33,21.46-.31,1.29,0,3.06-.41,3.26,1.78A46.85,46.85,0,0,1,210.36,185.61Z" transform="translate(-83.48 -44.67)"/><path class="cls-5" d="M117.42,58.83a75.24,75.24,0,0,1,35-13.52,77.86,77.86,0,0,1,27.39,1.3,72.84,72.84,0,0,1,26.62,11.75c-1.06,1.48-2.67,1.22-4.14,1.23-11,0-22-.27-33,.08-15.91.51-31.81.3-47.72.36C120.08,60,118.41,60.47,117.42,58.83Z" transform="translate(-83.48 -44.67)"/><path class="cls-6" d="M218.6,178.19c-.45-1.2-1.47-1.09-2.46-1.09-5.65,0-11.31-.19-17,0-23.64,1-47.3-.08-70.93.52-9.94.25-19.87.19-29.79.36a10.7,10.7,0,0,1-3.56-.46l1.83-6.78a5.4,5.4,0,0,1,2.67-.3c6.41,0,12.82.22,19.22,0,21.47-.88,42.95.09,64.42-.51,12.28-.35,24.56-.17,36.83-.35a13,13,0,0,1,2.93.13c.91.18,1.83.43,1.69,1.68A35.42,35.42,0,0,1,218.6,178.19Z" transform="translate(-83.48 -44.67)"/><path class="cls-7" d="M239.75,110.5c.16,2.44,1.34,4.75.94,7.26a3.06,3.06,0,0,1-2.09.7c-.45,0-.91,0-1.36,0-30.88,0-61.76.77-92.65.46a19.69,19.69,0,0,0-4.27.25c-2.07.14-2.32-1.38-2.31-2.81,0-2.11,3.75-6.14,6-6.67,29.57-.5,59.14-.38,88.71-.39,1.51,0,3,0,4.53,0C238.21,109.4,239.21,109.45,239.75,110.5Z" transform="translate(-83.48 -44.67)"/><path class="cls-8" d="M139.67,119.19c.39-1.61,1.71-1,2.61-1,18.79,0,37.59.29,56.36-.13,14-.32,28-.2,42.05-.35.22,2.75.62,5.5.1,8.26a14.48,14.48,0,0,1-3.6.17c-18.83,0-37.67-.29-56.49.11-10.7.23-21.38.19-32.07.35a22,22,0,0,0-2.7.23,1.76,1.76,0,0,1-2-.46,30.12,30.12,0,0,1-4.38-6.4A.82.82,0,0,1,139.67,119.19Z" transform="translate(-83.48 -44.67)"/><path class="cls-9" d="M139.16,84.86c.49-.81,1.3-.63,2-.62,16.36.32,32.7-.65,49.06-.48,12.22.13,24.44,0,36.66,0a4.78,4.78,0,0,0,2.86-.43,29.69,29.69,0,0,1,4.51,8.57,4.83,4.83,0,0,1-2.44.3c-2.71,0-5.42,0-8.13,0-26.9-.32-53.78.62-80.67.49-.38,0-.87,0-1.06-.28C140.5,90.11,138.91,87.82,139.16,84.86Z" transform="translate(-83.48 -44.67)"/><path class="cls-10" d="M145.06,127a1.49,1.49,0,0,1,1.33-1.06l1.13,0c30.33-.14,60.64-.7,91-.44.79,0,1.69-.28,2.3.55a21.21,21.21,0,0,1-.5,6.69c-1.17.95-2.57.72-3.9.72-15,0-30-.35-45,.12-13,.4-26.06,0-39.08.5-.49.11-1.06.4-1.5,0C148.48,132.07,146.1,130.08,145.06,127Z" transform="translate(-83.48 -44.67)"/><path class="cls-11" d="M117.42,58.83a5,5,0,0,0,2.86.49c13.2,0,26.42.39,39.61-.1,14.56-.54,29.1-.11,43.65-.33a17.09,17.09,0,0,0,2.87-.53A40.89,40.89,0,0,1,215,65.18a24.86,24.86,0,0,1-6.72.48c-19.67,0-39.35-.32-59,.12-12.49.28-25,.14-37.47.33a4.94,4.94,0,0,1-2.86-.43A46.66,46.66,0,0,1,117.42,58.83Z" transform="translate(-83.48 -44.67)"/><path class="cls-12" d="M236.16,96.47l2.19,6.79a2.08,2.08,0,0,1-1.4.64,10.54,10.54,0,0,1-1.58.09c-29.33,0-58.66.73-88,.49-.15,0-.3,0-.45,0a10.6,10.6,0,0,1-2.61-6.72c.7-1.57,2.14-1.5,3.49-1.52,5.13,0,10.26,0,15.4,0,7.39,0,14.8.2,22.19,0,15.61-.52,31.23-.38,46.85-.4C233.58,95.74,235,95.49,236.16,96.47Z" transform="translate(-83.48 -44.67)"/><path class="cls-13" d="M146.57,104.17a3.85,3.85,0,0,1,2.4-.46c2.41,0,4.83,0,7.24,0,27.39.34,54.76-.65,82.14-.46a34.45,34.45,0,0,1,1.4,7.24,4.42,4.42,0,0,0-2.63-.44c-22.77,0-45.55-.22-68.33.12-7.59.11-15.19.15-22.79.33a4.36,4.36,0,0,1-2.63-.44C143.69,107.7,145.18,106,146.57,104.17Z" transform="translate(-83.48 -44.67)"/><path class="cls-14" d="M224.49,171.39c-.45-1.2-1.48-1.08-2.46-1.08-11.23,0-22.48-.34-33.69.07-21,.78-42-.12-63,.48-8.65.25-17.3.19-25.95.35a4.28,4.28,0,0,1-2.63-.43c-.27-.74.4-1.22.49-1.85a2.23,2.23,0,0,1,2.34-2c.91-.07,1.81-.07,2.71-.07,11.6,0,23.2-.1,34.79,0,10.92.12,21.82-.78,32.74-.49,1.58,0,3.14-.43,4.72-.3,4,.85,8,2.2,12.16,2.21a25.51,25.51,0,0,0,13.79-3.54,6.28,6.28,0,0,1,3.09-1.27c7,.43,14,.1,21,.2a12.4,12.4,0,0,1,2.92.18c.9.24,1.57.65,1,1.75C227,167.42,226.36,169.85,224.49,171.39Z" transform="translate(-83.48 -44.67)"/><path class="cls-15" d="M236.16,96.47c-11,0-22-.24-33,0-18.69.49-37.38.36-56.07.4-1.05,0-2.22-.19-2.38,1.37a6.4,6.4,0,0,1-2.34-5.74c.57-.88,1.48-.61,2.27-.6,21.78.3,43.55-.74,65.33-.48,7.24.09,14.48,0,21.72,0a4.35,4.35,0,0,1,2.63.43A22,22,0,0,1,236.16,96.47Z" transform="translate(-83.48 -44.67)"/><path class="cls-16" d="M93.82,162.2A21.24,21.24,0,0,1,90.7,156c-.16-1.13.66-1.39,1.48-1.61a8.92,8.92,0,0,1,2.25-.17c17.86-.11,35.71-.69,53.57-.49a2.7,2.7,0,0,1,2.11.54c3,2.06,6.19,3.9,9.39,5.69.71.4,1.84.91.49,1.94a8.62,8.62,0,0,1-4.2.57c-13.11,0-26.21.1-39.31,0-6.41-.07-12.78.64-19.18.5C96.1,162.86,94.87,163,93.82,162.2Z" transform="translate(-83.48 -44.67)"/><path class="cls-17" d="M151.47,134.09c.08-.48.27-.87.83-.89s.9,0,1.36,0c28.88.06,57.75-.78,86.63-.45-.58,2.57-.29,5.29-1.35,7.77-4.57-.54-9.16-.22-13.74-.26-6.83-.06-13.67,0-20.5,0-1.18,0-2.42-.2-3.48.57s-2,.09-2.94-.34c-2.8-1.31-5.47-2.87-8.33-4-1.95-.79-3.87-1.34-5.66.39a1.35,1.35,0,0,1-1.09.18c-2.1-.59-4.2,0-6.3,0-5.72,0-11.45,0-17.17,0a15.69,15.69,0,0,0-4,.38A4.67,4.67,0,0,1,151.47,134.09Z" transform="translate(-83.48 -44.67)"/><path class="cls-18" d="M93.82,162.2c21-.74,41.91-.46,62.87-.48a12,12,0,0,0,4-.55c.69-.38,1.31,0,1.92.2,3.59,1.47,7.24,2.77,10.92,4,.69.22,1.48.39,1.71,1.25-6.67.92-13.38.22-20.07.56-18.37.93-36.75.15-55.13.4-1.23,0-2.22.18-2.82,1.36-.16-1.79-1.35-3-2.33-4.37A13.29,13.29,0,0,1,93.82,162.2Z" transform="translate(-83.48 -44.67)"/><path class="cls-19" d="M148.7,154a4.52,4.52,0,0,1-2.63.43c-6.41,0-12.83.07-19.24,0-11.29-.15-22.57.81-33.87.47-.94,0-1.84,0-2.26,1.05a29.56,29.56,0,0,1-3.13-7.84c1.07-1,2.4-.72,3.65-.72q21.77,0,43.53,0a51.11,51.11,0,0,0,5.4-.24,3.51,3.51,0,0,1,2.26.86c2,1.47,3.7,3.3,5.75,4.7C148.57,153,149,153.38,148.7,154Z" transform="translate(-83.48 -44.67)"/><path class="cls-20" d="M141.1,147.64a27,27,0,0,1-6.72.47H87.57a13.93,13.93,0,0,1-1.38-4.84c-.52-1.4.2-2,1.46-2.14a15.53,15.53,0,0,1,2.26-.09c4.75,0,9.51,0,14.26,0,9.73,0,19.45-.58,29.17-.63a2.72,2.72,0,0,1,2.06.67,74.59,74.59,0,0,1,5.34,5.33A1.25,1.25,0,0,1,141.1,147.64Z" transform="translate(-83.48 -44.67)"/><path class="cls-21" d="M134.38,140.82a12.32,12.32,0,0,1-3.78.51c-14.09,0-28.18.77-42.28.44-1.1,0-2.21-.12-2.13,1.51a18.88,18.88,0,0,1-1.35-5.92c-.49-1.23,0-1.86,1.25-2.07a17,17,0,0,1,2.94-.14c13.28,0,26.57.07,39.85-.06C132.05,135.72,133.28,138.21,134.38,140.82Z" transform="translate(-83.48 -44.67)"/><path class="cls-22" d="M129.79,135.41a5.6,5.6,0,0,1-3.07.47H87.2c-1.07,0-2.43-.38-2.36,1.47a25.52,25.52,0,0,1-.93-7.33c.11-.1.21-.2.31-.31a6.62,6.62,0,0,1,3.32-.44H112a53,53,0,0,0,7.44-.35,13.07,13.07,0,0,1,5.59.41A8.46,8.46,0,0,1,129.79,135.41Z" transform="translate(-83.48 -44.67)"/><path class="cls-23" d="M200.85,140.8c-.57-1.73.81-1.27,1.55-1.27,4.9-.05,9.8,0,14.7,0,6.56,0,13.11,0,19.67,0,.82,0,1.92-.42,2.17,1a11.85,11.85,0,0,1-1.29,5,7.11,7.11,0,0,1-3.72.68q-9.69,0-19.38,0a7.22,7.22,0,0,0-3.53.49c-.4.2-.83.43-1.24.09a34.63,34.63,0,0,0-7.85-4.57A1.66,1.66,0,0,1,200.85,140.8Z" transform="translate(-83.48 -44.67)"/><path class="cls-24" d="M94.37,83.78h22.36c1.28,0,2.55,0,3.53,1-.78,2.74-2.83,4.81-4,7.38-.19.45-.74.43-1.2.38-4.33-.78-8.7-.31-13-.39-3.16,0-6.31-.12-9.46.1a2.07,2.07,0,0,1-2.19-.8A30.23,30.23,0,0,1,94.37,83.78Z" transform="translate(-83.48 -44.67)"/><path class="cls-25" d="M84,114.59l.92-6.34a1.5,1.5,0,0,1,1.05-.33c8.41.48,16.8-.57,25.2-.38,1.2,0,2.42-.09,3.48.67,1.27,1.35,1.54,3.12,2,4.8a1.13,1.13,0,0,1-.52,1.52,55.21,55.21,0,0,1-8.31.76c-6.79.06-13.59,0-20.38,0C86.3,115.3,85.05,115.51,84,114.59Z" transform="translate(-83.48 -44.67)"/><path class="cls-26" d="M235.74,151.29a30.31,30.31,0,0,1-2.7,6.34,4.78,4.78,0,0,1-2.58.71c-6.55,0-13.11,0-19.66,0a4.37,4.37,0,0,1-2-.37,1,1,0,0,1-.56-1.12,58.89,58.89,0,0,1,1.25-5.9,1.53,1.53,0,0,1,1.08-1c2.83-.51,5.69-.21,8.53-.24,4.73,0,9.45-.09,14.18,0C234.27,149.73,236,149.2,235.74,151.29Z" transform="translate(-83.48 -44.67)"/><path class="cls-27" d="M114.7,108.7a4.37,4.37,0,0,0-2.61-.46c-8-.26-15.87.77-23.82.48a11.93,11.93,0,0,1-3.31-.47l1.34-5.45a2.37,2.37,0,0,1,2.31-1.12c7.94-.05,15.89-.12,23.83,0a3.15,3.15,0,0,1,1.09.25,1.45,1.45,0,0,1,.79.92,21.54,21.54,0,0,0,.44,2.65C114.84,106.59,115.65,107.66,114.7,108.7Z" transform="translate(-83.48 -44.67)"/><path class="cls-28" d="M208.59,157.63H233a36.2,36.2,0,0,1-4.56,8c0-1.64-1.22-1.19-2.1-1.2q-9.78,0-19.56,0a12.18,12.18,0,0,1-3.76-.48c-.05-.15-.11-.34,0-.43C204.89,161.55,206.42,159.28,208.59,157.63Z" transform="translate(-83.48 -44.67)"/><path class="cls-29" d="M84,114.59c10.82-.06,21.64.24,32.45-.45a9.15,9.15,0,0,1,2.32,3.73c.28.63.4,1.32-.47,1.68a5.26,5.26,0,0,1-2,.26c-9.09-.2-18.16.74-27.25.49-4.29-.12-4.3,0-4.45,4.2-.1,1.83.49,3.74-.61,5.45l-.12.08A61.37,61.37,0,0,1,84,114.59Z" transform="translate(-83.48 -44.67)"/><path class="cls-15" d="M90.42,91.49c1.16.59,2.33,0,3.5,0,6.22,0,12.44,0,18.67,0a4.28,4.28,0,0,1,3.11,1c.15,2,.16,4-1.73,5.37a25.79,25.79,0,0,1-6.08.26q-7.92,0-15.84,0c-1.35,0-2.73.1-3.94-.7A18.89,18.89,0,0,1,90.42,91.49Z" transform="translate(-83.48 -44.67)"/><path class="cls-12" d="M88.11,97.37h26.22a4.08,4.08,0,0,1-.41,5q-12.39,0-24.77,0a4.76,4.76,0,0,0-2.85.44A17.92,17.92,0,0,1,88.11,97.37Z" transform="translate(-83.48 -44.67)"/><path class="cls-30" d="M235.74,151.29c-.29-1.38-1.4-.89-2.2-.89-7.75-.05-15.51,0-23.26-.05a2.93,2.93,0,0,1,0-3.49c-.06-1.41.84-1.48,1.92-1.48,8.47,0,17,0,25.42.05C236.71,147.29,237,149.55,235.74,151.29Z" transform="translate(-83.48 -44.67)"/><path class="cls-31" d="M210.31,146.86l0,3.49c-.56,2.43-1.12,4.85-1.69,7.28-1.39,2.49-3.52,4.35-5.53,6.32a26.75,26.75,0,0,1-18,4.88,30.63,30.63,0,0,1-9.86-2.22l-14.55-5.44a135.37,135.37,0,0,1-12-7.15l-7.6-6.38-6.72-6.82-4.59-5.41-4-5.46c-2-1.5-3.06-3.78-4.52-5.73-.75-1.73-2.41-3-2.44-5.1l-2.3-5-1.79-5.44-.46-3.19c-.32-.77.07-1.64-.32-2.4v-.75c.14-1.66.28-3.33.41-5,.46-1.64.92-3.29,1.37-4.93a36.29,36.29,0,0,1,4.56-7.62c.33-.31.68-.6,1-.93A13,13,0,0,1,135.1,80c2.37.77,2.93,3,4.06,4.85a62.15,62.15,0,0,0,3.17,7.69,35.43,35.43,0,0,0,2.34,5.74c.4,2,1.93,3.71,1.9,5.88a25.33,25.33,0,0,1-3.2,5.9c-1.36,1.49-2.77,2.94-4.07,4.48s-.87,3.18.37,4.64a40.22,40.22,0,0,0,5.39,7.81,45.85,45.85,0,0,0,6.41,7.09l3.65,3.06c1.49.12,2.33,1.37,3.5,2a67.67,67.67,0,0,0,13.3,7,3.62,3.62,0,0,0,4.6-1.15c1.72-2,3-4.32,4.88-6.16.85-.59,1.2-1.73,2.26-2.08,1.34-2.23,3.32-2.24,5.37-1.34,3.42,1.48,6.77,3.12,10.16,4.68.54.25,1.11.42,1.66.62,2.32,1.22,4.62,2.48,7,3.63A4.7,4.7,0,0,1,210.31,146.86Z" transform="translate(-83.48 -44.67)"/><path class="cls-17" d="M158.25,139.55l-3.13-2.4a3.73,3.73,0,0,1,2.93-.82c6.69,0,13.38,0,20.07,0,1.86,0,3.84-1.19,5.54.5a5.68,5.68,0,0,1-1.69,2.28c-3.45.43-6.92.1-10.38.18C167.14,139.39,162.69,139.12,158.25,139.55Z" transform="translate(-83.48 -44.67)"/><path class="cls-32" d="M121.6,124.09a36.77,36.77,0,0,1,4.15,5.86H84c0-1.8,0-3.6,0-5.39a4.14,4.14,0,0,1,3-.73c11-.07,22.09.11,33.13-.1A2.4,2.4,0,0,1,121.6,124.09Z" transform="translate(-83.48 -44.67)"/><path class="cls-12" d="M113.92,103.11a4.69,4.69,0,0,1,.32,2.4C113.6,104.78,114,103.92,113.92,103.11Z" transform="translate(-83.48 -44.67)"/><path class="cls-33" d="M121.6,124.09a12.28,12.28,0,0,1-3.77.48q-16.92,0-33.85,0c0-5,0-5,4.91-5,4.5,0,9,.35,13.5-.09,5.48-.53,10.94-.17,16.4-.36Z" transform="translate(-83.48 -44.67)"/><path class="cls-34" d="M158.25,139.55a2.75,2.75,0,0,1,2.41-1q9.57,0,19.16,0a4.53,4.53,0,0,1,2.15.53c-1.83,2.26-3.68,4.51-5.48,6.8a3.21,3.21,0,0,1-4,1.18C167.57,144.91,162.52,143,158.25,139.55Z" transform="translate(-83.48 -44.67)"/></svg>